<svg width="150" height="150" viewBox="0 0 75 60" fill="none" xmlns="http://www.w3.org/2000/svg">
<rect x="6" width="64" height="60" fill="white"/>
<rect x="13" y="5" width="50" height="50" rx="25" fill="#986EE7"/>
<path d="M33.217 44.6705L33.6048 43.7488L33.6048 43.7488L33.217 44.6705ZM34.3775 45.926C34.8889 45.7175 35.1345 45.1339 34.926 44.6225L31.5287 36.2884C31.3202 35.7769 30.7366 35.5314 30.2252 35.7398C29.7137 35.9483 29.4681 36.5319 29.6766 37.0433L32.6965 44.4515L25.2884 47.4713C24.7769 47.6798 24.5314 48.2634 24.7398 48.7748C24.9483 49.2863 25.5319 49.5319 26.0433 49.3234L34.3775 45.926ZM32.8291 45.5922L33.6121 45.9217L34.3879 44.0783L33.6048 43.7488L32.8291 45.5922ZM31.4762 13.1137C18.0066 20.1533 18.8207 39.6973 32.8291 45.5922L33.6048 43.7488C21.156 38.5101 20.4326 21.1421 32.4026 14.8863L31.4762 13.1137Z" fill="#FFD65B"/>
<path d="M41.783 14.3295L41.3952 15.2512L41.3952 15.2512L41.783 14.3295ZM40.6225 13.074C40.1111 13.2825 39.8655 13.8661 40.074 14.3775L43.4713 22.7116C43.6798 23.2231 44.2634 23.4686 44.7748 23.2602C45.2863 23.0517 45.5319 22.4681 45.3234 21.9567L42.3035 14.5485L49.7116 11.5287C50.2231 11.3202 50.4686 10.7366 50.2602 10.2252C50.0517 9.71374 49.4681 9.46815 48.9567 9.67663L40.6225 13.074ZM42.1709 13.4078L41.3879 13.0783L40.6121 14.9217L41.3952 15.2512L42.1709 13.4078ZM43.5238 45.8863C56.9934 38.8467 56.1793 19.3027 42.1709 13.4078L41.3952 15.2512C53.844 20.4899 54.5674 37.8579 42.5974 44.1137L43.5238 45.8863Z" fill="white"/>
</svg>
