<svg width="90" height="90" viewBox="0 0 90 90" fill="none" xmlns="http://www.w3.org/2000/svg">
<g clip-path="url(#clip0_7_5)">
<circle cx="45" cy="45" r="45" fill="#986EE7"/>
<path d="M22.2929 56.2929C21.9024 56.6834 21.9024 57.3166 22.2929 57.7071L28.6569 64.0711C29.0474 64.4616 29.6805 64.4616 30.0711 64.0711C30.4616 63.6805 30.4616 63.0474 30.0711 62.6569L24.4142 57L30.0711 51.3431C30.4616 50.9526 30.4616 50.3195 30.0711 49.9289C29.6805 49.5384 29.0474 49.5384 28.6569 49.9289L22.2929 56.2929ZM68 56L23 56V58L68 58V56Z" fill="white"/>
<path d="M68.7071 33.7071C69.0976 33.3166 69.0976 32.6834 68.7071 32.2929L62.3431 25.9289C61.9526 25.5384 61.3195 25.5384 60.9289 25.9289C60.5384 26.3195 60.5384 26.9526 60.9289 27.3431L66.5858 33L60.9289 38.6569C60.5384 39.0474 60.5384 39.6805 60.9289 40.0711C61.3195 40.4616 61.9526 40.4616 62.3431 40.0711L68.7071 33.7071ZM23 34H68V32H23V34Z" fill="#FFD65B"/>
</g>
<defs>
<clipPath id="clip0_7_5">
<rect width="90" height="90" rx="45" fill="white"/>
</clipPath>
</defs>
</svg>
